<?xml version="1.0" encoding="UTF-8"?><svg id="Layer_2" xmlns="http://www.w3.org/2000/svg" viewBox="0 0 135.29 135.29"><defs><style>.cls-1{fill:#fff;}</style></defs><g id="Layer_1-2"><path class="cls-1" d="M67.64,0C30.29,0,0,30.29,0,67.64s30.29,67.64,67.64,67.64,67.64-30.29,67.64-67.64S105,0,67.64,0Zm2.96,21s4.49,13.24,3.33,15.72c-.25,.54-1.52,2.06-2.47,3.15,.02,.91,.05,1.88,.07,2.89l-2.33-.03c.05-1,.09-1.96,.13-2.86-.93-1.12-2.18-2.68-2.42-3.23-1.1-2.5,3.68-15.64,3.68-15.64Zm-11.36,5.07c.6-.44,1.94-.45,2.46,0,.77,.67,1.03,8.1,1.01,18.15l-.05,6.88c-.04,3.38-.1,6.91-.17,10.49l-4.12-.03c-.08-3.57-.14-7.1-.18-10.46l-.05-6.88c-.01-10.09,.26-17.55,1.09-18.15Zm7.61,36.99l-.37,6.63h-14.22v-6.63h14.59Zm-10.3-18.83v6.88h-6.09l-1.59-6.88h7.68Zm-6.09,39.96l7.15-.07,.14,6.95h-8.88l1.59-6.88Zm10.02,30.1s-4.64-13.19-3.51-15.68c.25-.54,1.5-2.07,2.44-3.18-.05-1.35-.1-2.81-.16-4.36l-.24-6.96c-.13-4.04-.27-8.43-.39-12.91h3.66c-.12,4.49-.24,8.87-.37,12.91l-.23,6.96c-.05,1.55-.1,3-.15,4.34,.94,1.11,2.21,2.66,2.46,3.2,1.13,2.49-3.51,15.68-3.51,15.68Zm10.37-5.07c-.6,.43-1.95,.43-2.46-.03-.71-.63-.91-7.06-.83-15.99l4.56-.03c-.13,9.01-.49,15.49-1.27,16.04Zm21.13-24.51c-1.28,1.99-3.28,3.55-5.98,4.67-2.7,1.12-6.18,1.68-10.44,1.68h-12.43l.17-6.96h10.05c3.16,0,5.45-.65,6.84-1.97,1.39-1.31,2.09-3.08,2.09-5.32s-.72-3.92-2.17-5.2c-1.34-1.19-3.43-1.82-6.26-1.91l-.18-6.68c2.08-.13,3.63-.66,4.64-1.6,1.17-1.09,1.76-2.59,1.76-4.5,0-2.02-.66-3.49-1.96-4.42-1.31-.93-3.41-1.39-6.3-1.39h-7.73l.1-6.88h10.41c5.73,0,9.97,1.02,12.73,3.07,2.76,2.05,4.13,4.84,4.13,8.39,0,2.68-.71,4.85-2.13,6.51-1.42,1.67-3.49,2.82-6.22,3.48,2.57,.49,4.64,1.31,6.22,2.46,1.58,1.15,2.74,2.54,3.48,4.18,.74,1.64,1.11,3.47,1.11,5.49,0,2.62-.64,4.93-1.92,6.92Zm-23.86-15.02l.24-6.63h0c.14-3.62,.28-7.14,.42-10.47l2.99-.03c.07,3.34,.14,6.87,.2,10.49h0s.1,6.64,.1,6.64c.06,4.32,.09,8.63,.1,12.75h-4.42c.1-4.12,.23-8.43,.38-12.75h0Z"/></g></svg>